<svg xmlns="http://www.w3.org/2000/svg" width="321" height="321" viewBox="0 0 321 321">
  <g id="Layer_2" data-name="Layer 2" transform="translate(-0.016 -0.016)">
    <g id="invisible_box" data-name="invisible box">
      <rect id="Retângulo_6" data-name="Retângulo 6" width="321" height="321" transform="translate(0.016 0.016)" fill="none"/>
    </g>
    <g id="icons_Q2" data-name="icons Q2" transform="translate(26.751 13.375)">
      <path id="Caminho_19" data-name="Caminho 19" d="M45.758,107.479,19.007,81.4A14.044,14.044,0,0,1,17.669,63.34,12.707,12.707,0,0,1,37.733,62L55.121,79.391l57.515-57.515A13.376,13.376,0,0,1,131.362,40.6L64.484,107.479a12.707,12.707,0,0,1-18.726,0Z" transform="translate(58.573 95.831)" fill="#e60965"/>
      <path id="Caminho_20" data-name="Caminho 20" d="M132.069,34.751A100.317,100.317,0,1,1,31.751,135.069,100.317,100.317,0,0,1,132.069,34.751m0-26.751A127.069,127.069,0,1,0,259.138,135.069,127.069,127.069,0,0,0,132.069,8Z" transform="translate(1.689 32.128)" fill="#e60965"/>
      <path id="Caminho_21" data-name="Caminho 21" d="M17.376,68.879a14.045,14.045,0,0,1-10.7-5.35A13.376,13.376,0,0,1,9.351,44.8l53.5-40.127A13.376,13.376,0,0,1,78.9,26.077L25.4,66.2A12.707,12.707,0,0,1,17.376,68.879Z" transform="translate(-4 -2)" fill="#e60965"/>
      <path id="Caminho_22" data-name="Caminho 22" d="M98.879,68.879A12.707,12.707,0,0,1,90.854,66.2l-53.5-40.127A13.376,13.376,0,1,1,53.4,4.676L106.9,44.8a13.376,13.376,0,0,1,2.675,18.726,14.044,14.044,0,0,1-10.7,5.35Z" transform="translate(155.259 -2)" fill="#e60965"/>
    </g>
  </g>
</svg>
